<?xml version="1.0" encoding="UTF-8" standalone="no"?>
<svg
   xmlns:dc="http://purl.org/dc/elements/1.1/"
   xmlns:cc="http://creativecommons.org/ns#"
   xmlns:rdf="http://www.w3.org/1999/02/22-rdf-syntax-ns#"
   xmlns:svg="http://www.w3.org/2000/svg"
   xmlns="http://www.w3.org/2000/svg"
   xmlns:sodipodi="http://sodipodi.sourceforge.net/DTD/sodipodi-0.dtd"
   xmlns:inkscape="http://www.inkscape.org/namespaces/inkscape"
   width="41.6667in"
   height="41.6667in"
   viewBox="0 0 3000 3000"
   version="1.1"
   id="svg3771"
   sodipodi:docname="logo.svg"
   inkscape:version="0.92.2 (30a58d1, 2017-08-07)">
  <metadata
     id="metadata3777">
    <rdf:RDF>
      <cc:Work
         rdf:about="">
        <dc:format>image/svg+xml</dc:format>
        <dc:type
           rdf:resource="http://purl.org/dc/dcmitype/StillImage" />
        <dc:title></dc:title>
      </cc:Work>
    </rdf:RDF>
  </metadata>
  <defs
     id="defs3775" />
  <sodipodi:namedview
     pagecolor="#ffffff"
     bordercolor="#666666"
     borderopacity="1"
     objecttolerance="10"
     gridtolerance="10"
     guidetolerance="10"
     inkscape:pageopacity="0"
     inkscape:pageshadow="2"
     inkscape:window-width="1280"
     inkscape:window-height="718"
     id="namedview3773"
     showgrid="false"
     inkscape:snap-bbox="false"
     inkscape:zoom="0.017051811"
     inkscape:cx="5444.446"
     inkscape:cy="1444.446"
     inkscape:window-x="0"
     inkscape:window-y="0"
     inkscape:window-maximized="1"
     inkscape:current-layer="svg3771" />
  <path
     style="fill:#0000cc;fill-opacity:1"
     d="M 430.00,88.00            C 430.00,88.00 471.00,88.00 471.00,88.00              471.00,88.00 607.00,88.00 607.00,88.00              607.00,88.00 1063.00,88.00 1063.00,88.00              1063.00,88.00 2076.00,88.00 2076.00,88.00              2076.00,88.00 2583.00,88.00 2583.00,88.00              2594.18,88.02 2594.67,92.00 2601.93,100.00              2601.93,100.00 2630.95,133.00 2630.95,133.00              2630.95,133.00 2754.28,273.00 2754.28,273.00              2754.28,273.00 2874.16,409.00 2874.16,409.00              2874.16,409.00 2909.42,449.00 2909.42,449.00              2912.16,452.16 2921.46,461.54 2922.19,465.00              2922.91,468.38 2916.98,478.54 2915.25,482.00              2915.25,482.00 2894.25,525.00 2894.25,525.00              2894.25,525.00 2864.70,589.00 2864.70,589.00              2864.70,589.00 2823.80,685.00 2823.80,685.00              2782.90,786.94 2745.64,895.50 2722.79,1003.00              2714.77,1040.74 2708.55,1078.61 2704.83,1117.00              2704.83,1117.00 2702.91,1142.00 2702.91,1142.00              2702.91,1142.00 2702.00,1152.00 2702.00,1152.00              2702.00,1152.00 2702.00,1166.00 2702.00,1166.00              2702.00,1166.00 2701.00,1180.00 2701.00,1180.00              2701.00,1180.00 2701.00,1184.00 2701.00,1184.00              2701.00,1184.00 2702.00,1199.00 2702.00,1199.00              2702.00,1199.00 2702.00,1208.00 2702.00,1208.00              2702.00,1208.00 2702.91,1218.00 2702.91,1218.00              2702.91,1218.00 2709.73,1272.00 2709.73,1272.00              2709.73,1272.00 2717.83,1341.00 2717.83,1341.00              2717.83,1341.00 2720.09,1377.00 2720.09,1377.00              2720.09,1377.00 2722.00,1424.00 2722.00,1424.00              2722.00,1424.00 2723.00,1441.00 2723.00,1441.00              2723.00,1441.00 2723.00,1510.00 2723.00,1510.00              2723.00,1510.00 2722.00,1525.00 2722.00,1525.00              2722.00,1525.00 2722.00,1544.00 2722.00,1544.00              2722.00,1544.00 2721.00,1557.00 2721.00,1557.00              2721.00,1557.00 2720.00,1587.00 2720.00,1587.00              2720.00,1587.00 2719.00,1600.00 2719.00,1600.00              2719.00,1600.00 2717.09,1628.00 2717.09,1628.00              2717.09,1628.00 2710.17,1705.00 2710.17,1705.00              2700.50,1801.73 2681.56,1905.17 2656.15,1999.00              2627.94,2103.18 2585.95,2213.71 2520.12,2300.00              2506.05,2318.43 2487.58,2338.52 2470.00,2353.57              2470.00,2353.57 2424.00,2387.72 2424.00,2387.72              2424.00,2387.72 2384.00,2416.42 2384.00,2416.42              2332.26,2453.78 2282.46,2493.61 2232.00,2532.65              2145.19,2599.81 2058.82,2670.14 1957.00,2713.57              1901.80,2737.12 1861.26,2745.38 1805.00,2761.42              1748.41,2777.55 1682.82,2799.09 1629.00,2822.42              1600.20,2834.91 1563.12,2853.29 1537.00,2870.34              1537.00,2870.34 1511.00,2888.15 1511.00,2888.15              1508.55,2889.94 1502.86,2894.88 1500.00,2894.88              1497.65,2894.88 1494.83,2892.48 1493.00,2891.13              1493.00,2891.13 1479.00,2881.02 1479.00,2881.02              1462.26,2869.49 1444.88,2858.98 1427.00,2849.31              1379.07,2823.39 1327.58,2803.92 1276.00,2786.67              1276.00,2786.67 1243.00,2775.72 1243.00,2775.72              1243.00,2775.72 1163.00,2752.42 1163.00,2752.42              1163.00,2752.42 1112.00,2738.58 1112.00,2738.58              1082.84,2730.05 1048.32,2716.97 1021.00,2703.74              899.45,2644.91 788.50,2546.89 681.00,2464.88              681.00,2464.88 591.00,2398.42 591.00,2398.42              563.00,2378.40 542.80,2365.95 517.00,2341.91              496.63,2322.93 470.94,2289.67 455.69,2266.00              396.12,2173.52 357.42,2059.67 332.12,1953.00              312.77,1871.42 298.17,1788.43 289.83,1705.00              289.83,1705.00 282.91,1628.00 282.91,1628.00              282.91,1628.00 281.00,1603.00 281.00,1603.00              281.00,1603.00 280.00,1585.00 280.00,1585.00              280.00,1585.00 278.96,1566.00 278.96,1566.00              278.96,1566.00 278.96,1554.00 278.96,1554.00              278.96,1554.00 278.00,1543.00 278.00,1543.00              278.00,1543.00 278.00,1525.00 278.00,1525.00              278.00,1525.00 277.00,1508.00 277.00,1508.00              277.00,1508.00 277.00,1441.00 277.00,1441.00              277.00,1441.00 278.00,1424.00 278.00,1424.00              278.00,1424.00 278.00,1409.00 278.00,1409.00              278.00,1409.00 279.00,1389.00 279.00,1389.00              279.00,1389.00 279.96,1376.00 279.96,1376.00              281.15,1348.61 283.89,1321.26 287.15,1294.00              287.15,1294.00 293.72,1251.00 293.72,1251.00              296.04,1233.74 297.97,1216.41 298.00,1199.00              298.00,1199.00 299.00,1183.00 299.00,1183.00              299.00,1183.00 298.00,1166.00 298.00,1166.00              298.00,1166.00 298.00,1152.00 298.00,1152.00              298.00,1152.00 296.17,1129.00 296.17,1129.00              296.17,1129.00 293.84,1102.00 293.84,1102.00              293.84,1102.00 283.42,1034.00 283.42,1034.00              271.36,967.13 249.88,888.26 227.66,824.00              197.00,735.36 162.84,648.27 123.69,563.00              123.69,563.00 89.75,492.00 89.75,492.00              89.75,492.00 80.75,474.00 80.75,474.00              79.54,471.57 77.23,467.75 77.81,465.00              78.36,462.39 83.25,457.14 85.16,455.00              85.16,455.00 102.93,435.00 102.93,435.00              102.93,435.00 162.85,367.00 162.85,367.00              162.85,367.00 327.72,180.00 327.72,180.00              327.72,180.00 379.72,121.00 379.72,121.00              385.84,114.01 402.75,93.28 409.00,89.02              414.43,87.20 423.99,88.00 430.00,88.00 Z"
     stroke-width="100"
     stroke="black"
     fill="#0928fd"
     id="path6018" />
  <path
     id="Border"
     d="m 345.7606,1845.1477 c 0,0 -10.25307,-57.7195 -10.25307,-57.7195 0,0 -1.79456,-16.7911 -1.79456,-16.7911 0,0 -3.75701,-26.4145 -3.75701,-26.4145 0,0 0,-9.2667 0,-9.2667 0,0 -7.67145,-64.0162 -7.67145,-64.0162 0,0 -2.79153,-26.2361 -2.79153,-26.2361 0,0 -1.40626,-20.989 -1.40626,-20.989 0,0 -1.92047,-22.0383 -1.92047,-22.0383 -0.021,-2.3297 -0.14693,-6.2861 0.62967,-8.3955 1.59515,-4.3447 13.18103,-13.8632 17.2109,-17.8406 0,0 25.18669,-23.1822 25.18669,-23.1822 0,0 30.43392,-28.4191 30.43392,-28.4191 0,0 40.92838,-38.5565 40.92838,-38.5565 0,0 99.69732,-92.5402 99.69732,-92.5402 0,0 77.65897,-72.4957 77.65897,-72.4957 0,0 24.13726,-22.8149 24.13726,-22.8149 0,0 62.96673,-58.769 62.96673,-58.769 0,0 171.05963,-159.5157 171.05963,-159.5157 0,0 613.92568,-572.13674 613.92568,-572.13674 0,0 217.2352,-202.543 217.2352,-202.543 0,0 108.0929,-100.83073 108.0929,-100.83073 0,0 39.8788,-37.50717 39.8788,-37.50717 0,0 39.879,-36.86703 39.879,-36.86703 0,0 15.7417,-14.69224 15.7417,-14.69224 2.6656,-2.55014 7.4616,-7.86034 10.4945,-9.38204 2.5502,-1.26983 5.6145,-1.05994 8.3955,-1.07044 0,0 628.618,0 628.618,0 2.2983,0 6.0972,-0.15742 8.1437,0.7766 1.9939,0.89202 5.4361,5.20524 7.1677,7.0103 0,0 18.3338,21.59758 18.3338,21.59758 0,0 27.4011,31.48337 27.4011,31.48337 0,0 8.9622,9.44501 8.9622,9.44501 0,0 21.608,26.23614 21.608,26.23614 0,0 22.7311,26.24663 22.7311,26.24663 0,0 14.283,15.29042 14.283,15.29042 0,0 10.6203,12.96065 10.6203,12.96065 2.802,3.49465 7.6294,6.73744 4.8904,11.61737 -1.7735,3.15883 -8.8993,8.6999 -11.9112,11.58587 0,0 -29.3845,27.42202 -29.3845,27.42202 0,0 -24.1373,22.81495 -24.1373,22.81495 0,0 -54.5711,50.56227 -54.5711,50.56227 0,0 -287.5482,268.46917 -287.5482,268.46917 0,0 -1236.2467,1152.48014 -1236.2467,1152.48014 0,0 -372.55323,347.3665 -372.55323,347.3665 0,0 -109.14234,101.7962 -109.14234,101.7962 0,0 -31.48337,29.3845 -31.48337,29.3845 -5.89787,5.4991 -10.24258,11.355 -17.84056,14.5978 0,0 -6.95784,-8.4376 -6.95784,-8.4376 0,0 -23.82242,-34.5897 -23.82242,-34.5897 0,0 -6.96831,-9.7389 -6.96831,-9.7389 0,0 -24.35763,-44.8323 -24.35763,-44.8323 0,0 -18.37579,-35.6812 -18.37579,-35.6812 0,0 -5.75096,-15.7417 -5.75096,-15.7417 0,0 -15.08054,-34.6317 -15.08054,-34.6317 0,0 -2.39273,-8.3955 -2.39273,-8.3955 0,0 -6.58002,-17.8405 -6.58002,-17.8405 0,0 -5.10031,-12.5935 -5.10031,-12.5935 0,0 -4.00888,-13.6427 -4.00888,-13.6427 0,0 -3.34773,-9.4451 -3.34773,-9.4451 0,0 -1.90999,-8.3955 -1.90999,-8.3955 0,0 -6.28618,-20.9889 -6.28618,-20.9889 0,0 -13.72675,-45.1262 -13.72675,-45.1262 0,0 -10.26358,-46.1756 -10.26358,-46.1756 0,0 -7.46156,-31.4833 -7.46156,-31.4833 0,0 -4.47064,-18.8901 -4.47064,-18.8901 0.7766,-7.9757 -3.32673,-22.9513 -5.03734,-31.4833 z"
     inkscape:connector-curvature="0"
     style="fill:#ffffff;stroke:none;stroke-width:1.04944563" />
  <path
     id="Wappen"
     fill="#0928fd"
     stroke="black"
     stroke-width="100"
     d="M 430.00,88.00            C 430.00,88.00 471.00,88.00 471.00,88.00              471.00,88.00 607.00,88.00 607.00,88.00              607.00,88.00 1063.00,88.00 1063.00,88.00              1063.00,88.00 2076.00,88.00 2076.00,88.00              2076.00,88.00 2583.00,88.00 2583.00,88.00              2594.18,88.02 2594.67,92.00 2601.93,100.00              2601.93,100.00 2630.95,133.00 2630.95,133.00              2630.95,133.00 2754.28,273.00 2754.28,273.00              2754.28,273.00 2874.16,409.00 2874.16,409.00              2874.16,409.00 2909.42,449.00 2909.42,449.00              2912.16,452.16 2921.46,461.54 2922.19,465.00              2922.91,468.38 2916.98,478.54 2915.25,482.00              2915.25,482.00 2894.25,525.00 2894.25,525.00              2894.25,525.00 2864.70,589.00 2864.70,589.00              2864.70,589.00 2823.80,685.00 2823.80,685.00              2782.90,786.94 2745.64,895.50 2722.79,1003.00              2714.77,1040.74 2708.55,1078.61 2704.83,1117.00              2704.83,1117.00 2702.91,1142.00 2702.91,1142.00              2702.91,1142.00 2702.00,1152.00 2702.00,1152.00              2702.00,1152.00 2702.00,1166.00 2702.00,1166.00              2702.00,1166.00 2701.00,1180.00 2701.00,1180.00              2701.00,1180.00 2701.00,1184.00 2701.00,1184.00              2701.00,1184.00 2702.00,1199.00 2702.00,1199.00              2702.00,1199.00 2702.00,1208.00 2702.00,1208.00              2702.00,1208.00 2702.91,1218.00 2702.91,1218.00              2702.91,1218.00 2709.73,1272.00 2709.73,1272.00              2709.73,1272.00 2717.83,1341.00 2717.83,1341.00              2717.83,1341.00 2720.09,1377.00 2720.09,1377.00              2720.09,1377.00 2722.00,1424.00 2722.00,1424.00              2722.00,1424.00 2723.00,1441.00 2723.00,1441.00              2723.00,1441.00 2723.00,1510.00 2723.00,1510.00              2723.00,1510.00 2722.00,1525.00 2722.00,1525.00              2722.00,1525.00 2722.00,1544.00 2722.00,1544.00              2722.00,1544.00 2721.00,1557.00 2721.00,1557.00              2721.00,1557.00 2720.00,1587.00 2720.00,1587.00              2720.00,1587.00 2719.00,1600.00 2719.00,1600.00              2719.00,1600.00 2717.09,1628.00 2717.09,1628.00              2717.09,1628.00 2710.17,1705.00 2710.17,1705.00              2700.50,1801.73 2681.56,1905.17 2656.15,1999.00              2627.94,2103.18 2585.95,2213.71 2520.12,2300.00              2506.05,2318.43 2487.58,2338.52 2470.00,2353.57              2470.00,2353.57 2424.00,2387.72 2424.00,2387.72              2424.00,2387.72 2384.00,2416.42 2384.00,2416.42              2332.26,2453.78 2282.46,2493.61 2232.00,2532.65              2145.19,2599.81 2058.82,2670.14 1957.00,2713.57              1901.80,2737.12 1861.26,2745.38 1805.00,2761.42              1748.41,2777.55 1682.82,2799.09 1629.00,2822.42              1600.20,2834.91 1563.12,2853.29 1537.00,2870.34              1537.00,2870.34 1511.00,2888.15 1511.00,2888.15              1508.55,2889.94 1502.86,2894.88 1500.00,2894.88              1497.65,2894.88 1494.83,2892.48 1493.00,2891.13              1493.00,2891.13 1479.00,2881.02 1479.00,2881.02              1462.26,2869.49 1444.88,2858.98 1427.00,2849.31              1379.07,2823.39 1327.58,2803.92 1276.00,2786.67              1276.00,2786.67 1243.00,2775.72 1243.00,2775.72              1243.00,2775.72 1163.00,2752.42 1163.00,2752.42              1163.00,2752.42 1112.00,2738.58 1112.00,2738.58              1082.84,2730.05 1048.32,2716.97 1021.00,2703.74              899.45,2644.91 788.50,2546.89 681.00,2464.88              681.00,2464.88 591.00,2398.42 591.00,2398.42              563.00,2378.40 542.80,2365.95 517.00,2341.91              496.63,2322.93 470.94,2289.67 455.69,2266.00              396.12,2173.52 357.42,2059.67 332.12,1953.00              312.77,1871.42 298.17,1788.43 289.83,1705.00              289.83,1705.00 282.91,1628.00 282.91,1628.00              282.91,1628.00 281.00,1603.00 281.00,1603.00              281.00,1603.00 280.00,1585.00 280.00,1585.00              280.00,1585.00 278.96,1566.00 278.96,1566.00              278.96,1566.00 278.96,1554.00 278.96,1554.00              278.96,1554.00 278.00,1543.00 278.00,1543.00              278.00,1543.00 278.00,1525.00 278.00,1525.00              278.00,1525.00 277.00,1508.00 277.00,1508.00              277.00,1508.00 277.00,1441.00 277.00,1441.00              277.00,1441.00 278.00,1424.00 278.00,1424.00              278.00,1424.00 278.00,1409.00 278.00,1409.00              278.00,1409.00 279.00,1389.00 279.00,1389.00              279.00,1389.00 279.96,1376.00 279.96,1376.00              281.15,1348.61 283.89,1321.26 287.15,1294.00              287.15,1294.00 293.72,1251.00 293.72,1251.00              296.04,1233.74 297.97,1216.41 298.00,1199.00              298.00,1199.00 299.00,1183.00 299.00,1183.00              299.00,1183.00 298.00,1166.00 298.00,1166.00              298.00,1166.00 298.00,1152.00 298.00,1152.00              298.00,1152.00 296.17,1129.00 296.17,1129.00              296.17,1129.00 293.84,1102.00 293.84,1102.00              293.84,1102.00 283.42,1034.00 283.42,1034.00              271.36,967.13 249.88,888.26 227.66,824.00              197.00,735.36 162.84,648.27 123.69,563.00              123.69,563.00 89.75,492.00 89.75,492.00              89.75,492.00 80.75,474.00 80.75,474.00              79.54,471.57 77.23,467.75 77.81,465.00              78.36,462.39 83.25,457.14 85.16,455.00              85.16,455.00 102.93,435.00 102.93,435.00              102.93,435.00 162.85,367.00 162.85,367.00              162.85,367.00 327.72,180.00 327.72,180.00              327.72,180.00 379.72,121.00 379.72,121.00              385.84,114.01 402.75,93.28 409.00,89.02              414.43,87.20 423.99,88.00 430.00,88.00 Z"
     style="fill:none;fill-opacity:1" />
  <path
     id="TuS"
     fill="white"
     stroke="none"
     d="M 465.88,365.00            C 465.88,365.00 471.70,347.99 471.70,347.99              471.70,347.99 479.00,347.00 479.00,347.00              479.00,347.00 691.00,347.00 691.00,347.00              691.00,347.00 698.28,347.99 698.28,347.99              698.28,347.99 703.88,365.00 703.88,365.00              703.88,365.00 719.00,422.00 719.00,422.00              719.00,422.00 628.00,422.00 628.00,422.00              628.00,422.00 628.00,616.00 628.00,616.00              628.00,616.00 628.00,667.00 628.00,667.00              627.94,675.13 626.73,674.98 619.00,675.00              619.00,675.00 542.00,675.00 542.00,675.00              542.00,675.00 542.00,422.00 542.00,422.00              542.00,422.00 451.00,422.00 451.00,422.00              451.00,422.00 465.88,365.00 465.88,365.00 Z            M 1047.00,601.00            C 1047.00,601.00 1058.00,600.17 1058.00,600.17              1066.66,599.33 1082.87,598.66 1078.03,585.00              1077.44,583.34 1076.41,581.48 1075.45,580.00              1073.84,577.49 1071.93,575.19 1069.91,573.00              1069.91,573.00 1015.84,512.00 1015.84,512.00              991.62,484.88 966.55,459.56 967.00,421.00              967.08,414.40 969.03,404.32 971.03,398.00              973.21,391.10 975.67,385.99 979.75,380.00              993.10,360.37 1015.89,350.41 1039.00,348.04              1039.00,348.04 1047.00,348.04 1047.00,348.04              1047.00,348.04 1059.00,347.00 1059.00,347.00              1059.00,347.00 1103.00,347.00 1103.00,347.00              1103.00,347.00 1139.00,347.00 1139.00,347.00              1141.13,347.00 1144.73,346.77 1146.49,348.02              1148.84,349.69 1151.26,360.76 1152.12,364.00              1152.12,364.00 1160.71,396.00 1160.71,396.00              1162.68,402.94 1166.44,415.29 1167.00,422.00              1167.00,422.00 1086.00,422.00 1086.00,422.00              1081.58,422.01 1080.43,421.98 1076.00,422.76              1066.06,424.50 1061.08,430.32 1066.35,440.00              1069.76,446.27 1082.94,459.68 1088.42,466.00              1088.42,466.00 1137.16,520.00 1137.16,520.00              1159.21,544.69 1178.40,566.12 1178.00,601.00              1177.60,635.29 1155.93,662.05 1123.00,670.85              1105.09,675.63 1086.36,675.00 1068.00,675.00              1068.00,675.00 998.00,675.00 998.00,675.00              996.00,675.00 992.34,675.26 990.72,674.01              988.41,672.21 985.99,660.34 985.12,657.00              985.12,657.00 975.58,622.00 975.58,622.00              975.58,622.00 970.00,601.00 970.00,601.00              970.00,601.00 1047.00,601.00 1047.00,601.00 Z            M 811.00,675.00            C 811.00,675.00 802.00,674.17 802.00,674.17              779.73,672.01 759.57,667.34 743.00,650.99              724.32,632.55 717.04,603.66 717.00,578.00              716.95,545.76 725.43,514.02 736.81,484.00              736.81,484.00 751.58,447.00 751.58,447.00              757.36,433.48 757.17,433.02 766.00,433.00              766.00,433.00 837.00,433.00 837.00,433.00              837.00,433.00 824.42,468.00 824.42,468.00              815.27,492.27 799.04,538.91 799.00,564.00              798.98,579.70 799.52,596.29 816.00,604.09              828.21,609.87 846.60,609.00 860.00,609.00              860.00,609.00 860.00,433.00 860.00,433.00              860.00,433.00 937.00,433.00 937.00,433.00              937.00,433.00 937.00,675.00 937.00,675.00              937.00,675.00 811.00,675.00 811.00,675.00 Z" />
  <path
     id="Mosella"
     fill="black"
     stroke="none"
     d="M 2175.00,590.17            C 2150.38,612.43 2138.12,625.45 2106.00,637.58              2089.45,643.82 2072.56,646.88 2055.00,648.09              2055.00,648.09 2043.00,648.99 2043.00,648.99              2043.00,648.99 2034.00,647.96 2034.00,647.96              2034.00,647.96 2026.00,647.96 2026.00,647.96              1979.63,643.40 1932.33,620.19 1901.72,585.00              1883.82,564.42 1871.13,542.65 1868.92,515.00              1868.61,511.20 1867.86,509.03 1868.09,505.00              1869.94,472.43 1886.84,445.88 1909.09,423.04              1909.09,423.04 1929.00,404.83 1929.00,404.83              1929.00,404.83 1979.00,358.96 1979.00,358.96              1979.00,358.96 2013.00,327.72 2013.00,327.72              2015.84,325.21 2022.15,317.58 2026.00,318.45              2029.07,319.15 2038.16,330.09 2040.99,333.00              2040.99,333.00 2081.17,377.00 2081.17,377.00              2081.17,377.00 2181.17,486.00 2181.17,486.00              2181.17,486.00 2230.00,540.00 2230.00,540.00              2230.00,540.00 2175.00,590.17 2175.00,590.17 Z            M 1990.00,459.96            C 1979.46,469.99 1968.09,480.26 1967.21,496.00              1966.31,512.02 1981.26,527.94 1993.00,536.87              2025.12,561.30 2068.17,567.67 2103.00,545.00              2099.76,538.14 2081.36,519.85 2075.17,513.00              2075.17,513.00 2032.09,466.00 2032.09,466.00              2032.09,466.00 2010.00,442.00 2010.00,442.00              2010.00,442.00 1990.00,459.96 1990.00,459.96 Z            M 1748.09,471.00            C 1748.09,471.00 1791.17,518.00 1791.17,518.00              1791.17,518.00 1853.83,586.00 1853.83,586.00              1853.83,586.00 1926.09,665.00 1926.09,665.00              1926.09,665.00 1980.28,724.00 1980.28,724.00              1980.28,724.00 1994.04,739.00 1994.04,739.00              1995.81,740.86 1999.91,744.59 2000.51,747.00              2001.55,751.15 1989.20,760.94 1986.00,763.83              1986.00,763.83 1947.00,799.58 1947.00,799.58              1944.00,802.18 1935.17,811.32 1932.04,811.83              1929.27,812.28 1927.51,809.75 1925.83,807.98              1925.83,807.98 1913.91,795.00 1913.91,795.00              1913.91,795.00 1865.04,742.00 1865.04,742.00              1865.04,742.00 1814.83,687.00 1814.83,687.00              1814.83,687.00 1725.83,590.00 1725.83,590.00              1725.83,590.00 1679.91,540.00 1679.91,540.00              1672.75,532.30 1660.74,520.12 1655.00,512.00              1655.00,512.00 1725.00,447.00 1725.00,447.00              1730.99,451.30 1742.42,464.91 1748.09,471.00 Z            M 1799.09,892.00            C 1799.09,892.00 1766.09,856.00 1766.09,856.00              1766.09,856.00 1720.17,806.00 1720.17,806.00              1720.17,806.00 1701.99,786.00 1701.99,786.00              1701.99,786.00 1670.91,752.00 1670.91,752.00              1670.91,752.00 1627.72,705.00 1627.72,705.00              1627.72,705.00 1598.09,673.00 1598.09,673.00              1598.09,673.00 1569.91,642.00 1569.91,642.00              1569.91,642.00 1552.28,623.00 1552.28,623.00              1550.87,621.39 1546.78,616.86 1546.33,615.00              1545.22,610.35 1556.73,601.95 1560.00,598.91              1560.00,598.91 1601.00,561.09 1601.00,561.09              1603.73,558.55 1612.52,549.46 1616.00,550.34              1618.78,551.03 1629.25,563.14 1631.91,566.00              1631.91,566.00 1672.04,610.00 1672.04,610.00              1672.04,610.00 1726.17,669.00 1726.17,669.00              1726.17,669.00 1788.83,737.00 1788.83,737.00              1788.83,737.00 1829.01,781.00 1829.01,781.00              1829.01,781.00 1875.96,832.00 1875.96,832.00              1875.96,832.00 1886.94,844.00 1886.94,844.00              1888.73,845.98 1890.86,848.09 1889.83,850.99              1889.03,853.25 1885.79,855.70 1884.00,857.28              1884.00,857.28 1871.00,869.17 1871.00,869.17              1871.00,869.17 1820.00,915.00 1820.00,915.00              1820.00,915.00 1799.09,892.00 1799.09,892.00 Z            M 1756.25,942.00            C 1756.25,942.00 1763.31,957.00 1763.31,957.00              1764.12,958.78 1765.94,961.99 1765.77,963.91              1765.54,966.40 1762.70,968.47 1760.99,970.09              1760.99,970.09 1746.00,983.99 1746.00,983.99              1723.66,1005.52 1702.22,1024.32 1673.00,1035.80              1617.95,1057.42 1553.09,1048.12 1504.00,1015.92              1491.32,1007.61 1483.64,1000.65 1473.00,990.00              1450.41,967.40 1432.27,938.38 1429.17,906.00              1428.65,900.60 1429.13,896.29 1429.87,891.00              1434.05,860.97 1450.11,839.91 1469.83,818.00              1477.98,808.95 1486.86,800.77 1496.00,792.72              1496.00,792.72 1514.00,776.61 1514.00,776.61              1539.93,755.39 1573.76,736.39 1608.00,747.67              1614.16,749.70 1618.58,751.72 1624.00,755.36              1631.36,760.29 1640.93,769.19 1646.54,776.00              1654.25,785.37 1661.06,796.48 1665.00,808.00              1673.22,832.05 1673.29,842.14 1673.00,867.00              1672.77,886.20 1662.83,928.76 1656.00,947.00              1673.73,938.35 1692.36,921.07 1707.00,907.83              1712.47,902.88 1724.16,890.76 1730.00,888.00              1730.00,888.00 1756.25,942.00 1756.25,942.00 Z            M 1577.98,927.00            C 1580.53,918.79 1582.67,910.48 1584.08,902.00              1585.34,894.46 1587.15,882.46 1586.99,875.00              1586.99,875.00 1585.24,860.00 1585.24,860.00              1581.09,843.86 1570.55,839.79 1557.00,849.03              1543.75,858.06 1531.99,870.67 1529.44,887.00              1527.10,901.97 1538.50,917.83 1549.04,927.27              1555.29,932.87 1564.94,940.65 1573.00,943.00              1573.00,943.00 1577.98,927.00 1577.98,927.00 Z            M 1392.00,1196.91            C 1392.00,1196.91 1424.00,1168.39 1424.00,1168.39              1428.29,1164.85 1438.79,1156.44 1435.78,1150.04              1433.80,1145.81 1428.20,1143.96 1424.00,1142.90              1424.00,1142.90 1392.00,1137.00 1392.00,1137.00              1357.82,1130.38 1306.38,1127.78 1281.00,1102.99              1255.76,1078.33 1252.71,1041.39 1271.70,1012.00              1281.88,996.24 1297.56,984.75 1311.00,971.96              1311.00,971.96 1336.00,948.99 1336.00,948.99              1338.74,946.32 1345.26,939.42 1349.00,938.97              1352.65,938.54 1365.24,947.17 1369.00,949.40              1369.00,949.40 1420.00,979.00 1420.00,979.00              1420.00,979.00 1382.00,1016.00 1382.00,1016.00              1377.05,1021.02 1369.82,1027.58 1375.65,1034.79              1379.41,1039.44 1386.47,1040.48 1392.00,1041.41              1392.00,1041.41 1428.00,1047.13 1428.00,1047.13              1465.81,1052.44 1508.62,1056.85 1533.08,1090.00              1551.55,1115.04 1551.94,1150.67 1533.96,1176.00              1524.50,1189.33 1503.56,1205.88 1491.00,1217.99              1491.00,1217.99 1462.00,1244.72 1462.00,1244.72              1459.58,1246.84 1452.63,1253.67 1450.00,1254.13              1446.52,1254.74 1433.62,1245.98 1430.00,1243.80              1430.00,1243.80 1377.00,1212.00 1377.00,1212.00              1381.87,1205.20 1386.14,1202.36 1392.00,1196.91 Z            M 1236.00,1106.05            C 1268.08,1117.81 1291.77,1144.16 1310.33,1172.00              1334.21,1207.80 1351.16,1248.63 1353.04,1292.00              1353.04,1292.00 1353.66,1299.00 1353.66,1299.00              1353.66,1299.00 1353.04,1306.00 1353.04,1306.00              1351.95,1331.14 1346.31,1354.72 1330.58,1375.00              1324.23,1383.17 1319.14,1388.38 1311.00,1394.79              1301.78,1402.05 1291.13,1408.09 1280.00,1411.92              1260.94,1418.48 1246.67,1418.23 1227.00,1418.00              1211.97,1417.82 1190.26,1411.74 1176.00,1406.69              1136.22,1392.61 1092.71,1362.93 1066.40,1330.00              1061.84,1324.29 1054.77,1314.33 1051.31,1308.00              1044.95,1296.34 1037.67,1272.28 1038.51,1259.00              1039.53,1243.03 1042.58,1228.46 1049.81,1214.00              1061.03,1191.56 1079.94,1174.71 1098.00,1157.91              1116.96,1140.28 1137.88,1119.74 1162.00,1109.43              1176.45,1103.25 1184.99,1102.57 1200.00,1100.42              1210.97,1099.09 1225.66,1102.26 1236.00,1106.05 Z            M 1157.00,1215.04            C 1147.78,1223.85 1137.48,1236.36 1138.10,1250.00              1138.76,1264.54 1150.53,1278.31 1161.00,1287.42              1180.05,1304.01 1195.66,1315.96 1220.00,1324.00              1226.70,1326.21 1239.07,1329.32 1246.00,1328.82              1263.67,1327.53 1263.16,1316.06 1263.00,1302.00              1262.69,1275.53 1241.09,1238.34 1223.95,1219.00              1213.24,1206.91 1203.25,1197.59 1186.00,1199.30              1174.40,1201.49 1165.50,1206.92 1157.00,1215.04 Z            M 934.09,1253.00            C 934.09,1253.00 1023.09,1350.00 1023.09,1350.00              1023.09,1350.00 1122.17,1458.00 1122.17,1458.00              1122.17,1458.00 1171.00,1512.00 1171.00,1512.00              1171.00,1512.00 1117.00,1561.09 1117.00,1561.09              1117.00,1561.09 1091.00,1584.00 1091.00,1584.00              1091.00,1584.00 1058.09,1548.00 1058.09,1548.00              1058.09,1548.00 1013.17,1499.00 1013.17,1499.00              1013.17,1499.00 957.17,1438.00 957.17,1438.00              957.17,1438.00 924.00,1402.00 924.00,1402.00              924.00,1402.00 928.17,1443.00 928.17,1443.00              928.17,1443.00 933.83,1498.00 933.83,1498.00              933.83,1498.00 938.00,1539.00 938.00,1539.00              938.00,1539.00 892.00,1530.40 892.00,1530.40              892.00,1530.40 804.00,1513.00 804.00,1513.00              804.00,1513.00 845.91,1559.00 845.91,1559.00              845.91,1559.00 896.17,1614.00 896.17,1614.00              896.17,1614.00 928.28,1649.00 928.28,1649.00              928.28,1649.00 958.83,1682.00 958.83,1682.00              958.83,1682.00 968.80,1695.00 968.80,1695.00              968.80,1695.00 964.00,1701.72 964.00,1701.72              964.00,1701.72 950.00,1714.42 950.00,1714.42              950.00,1714.42 911.00,1750.09 911.00,1750.09              911.00,1750.09 891.00,1768.00 891.00,1768.00              891.00,1768.00 870.91,1746.00 870.91,1746.00              870.91,1746.00 826.83,1698.00 826.83,1698.00              826.83,1698.00 704.83,1565.00 704.83,1565.00              704.83,1565.00 647.91,1503.00 647.91,1503.00              647.91,1503.00 626.83,1480.00 626.83,1480.00              626.83,1480.00 615.00,1466.00 615.00,1466.00              615.00,1466.00 648.00,1435.83 648.00,1435.83              648.00,1435.83 669.00,1416.42 669.00,1416.42              669.00,1416.42 690.00,1398.69 690.00,1398.69              690.00,1398.69 703.00,1400.40 703.00,1400.40              703.00,1400.40 731.00,1406.00 731.00,1406.00              731.00,1406.00 791.00,1418.21 791.00,1418.21              791.00,1418.21 835.00,1427.00 835.00,1427.00              835.00,1427.00 831.83,1398.00 831.83,1398.00              831.83,1398.00 823.84,1322.00 823.84,1322.00              823.84,1322.00 820.83,1293.00 820.83,1293.00              820.83,1293.00 820.19,1279.00 820.19,1279.00              820.19,1279.00 828.00,1270.58 828.00,1270.58              828.00,1270.58 842.00,1257.83 842.00,1257.83              842.00,1257.83 873.00,1229.09 873.00,1229.09              873.00,1229.09 894.00,1210.00 894.00,1210.00              894.00,1210.00 934.09,1253.00 934.09,1253.00 Z" />
  <path
     id="Schweich"
     fill="white"
     stroke="none"
     d="M 885.00,2234.00            C 892.58,2233.99 912.18,2234.05 911.68,2223.00              911.48,2218.48 907.02,2213.33 904.25,2210.00              904.25,2210.00 881.07,2184.00 881.07,2184.00              881.07,2184.00 838.40,2135.00 838.40,2135.00              825.45,2118.82 814.25,2102.55 814.00,2081.00              814.00,2081.00 814.00,2077.00 814.00,2077.00              814.08,2070.64 815.40,2063.06 817.34,2057.00              819.26,2051.04 821.22,2046.24 824.75,2041.00              843.19,2013.57 874.25,2012.00 904.00,2012.00              904.00,2012.00 937.00,2012.00 937.00,2012.00              937.00,2012.00 972.00,2012.00 972.00,2012.00              972.00,2012.00 984.15,2057.00 984.15,2057.00              984.15,2057.00 989.00,2077.00 989.00,2077.00              989.00,2077.00 923.00,2077.00 923.00,2077.00              915.63,2077.01 898.23,2077.15 899.25,2088.00              899.70,2092.72 903.84,2097.50 906.75,2101.00              906.75,2101.00 928.58,2125.00 928.58,2125.00              928.58,2125.00 974.00,2176.00 974.00,2176.00              981.48,2185.30 989.03,2194.84 993.55,2206.00              996.78,2213.98 998.21,2222.44 998.82,2231.00              999.04,2234.08 997.66,2243.71 997.00,2247.00              991.85,2272.41 976.25,2287.08 952.00,2294.65              936.82,2299.39 917.86,2299.00 902.00,2299.00              902.00,2299.00 834.00,2299.00 834.00,2299.00              834.00,2299.00 821.85,2254.00 821.85,2254.00              821.85,2254.00 817.00,2234.00 817.00,2234.00              817.00,2234.00 885.00,2234.00 885.00,2234.00 Z            M 1189.00,2299.00            C 1180.36,2298.98 1180.02,2298.64 1180.00,2290.00              1180.00,2290.00 1180.00,2077.00 1180.00,2077.00              1180.00,2077.00 1180.00,2021.00 1180.00,2021.00              1180.02,2012.36 1180.36,2012.02 1189.00,2012.00              1189.00,2012.00 1248.00,2012.00 1248.00,2012.00              1248.00,2012.00 1248.00,2087.00 1248.00,2087.00              1248.00,2087.00 1278.00,2087.00 1278.00,2087.00              1278.00,2087.00 1293.00,2087.00 1293.00,2087.00              1314.13,2087.03 1337.83,2094.14 1349.38,2113.00              1352.97,2118.86 1355.76,2127.29 1357.35,2134.00              1359.12,2141.49 1360.91,2155.36 1361.00,2163.00              1361.00,2163.00 1361.00,2267.00 1361.00,2267.00              1361.00,2267.00 1361.00,2291.00 1361.00,2291.00              1360.99,2292.82 1361.15,2295.92 1359.98,2297.40              1358.41,2299.38 1354.30,2299.00 1352.00,2299.00              1352.00,2299.00 1301.00,2299.00 1301.00,2299.00              1292.87,2298.94 1293.02,2297.73 1293.00,2290.00              1293.00,2290.00 1293.00,2189.00 1293.00,2189.00              1293.00,2179.10 1294.51,2157.62 1287.61,2150.33              1283.36,2145.84 1277.74,2145.46 1272.00,2144.93              1272.00,2144.93 1248.00,2144.00 1248.00,2144.00              1248.00,2144.00 1248.00,2299.00 1248.00,2299.00              1248.00,2299.00 1189.00,2299.00 1189.00,2299.00 Z            M 1976.00,2012.00            C 1976.00,2012.00 1976.00,2070.00 1976.00,2070.00              1976.00,2070.00 1909.00,2070.00 1909.00,2070.00              1909.00,2070.00 1909.00,2012.00 1909.00,2012.00              1909.00,2012.00 1976.00,2012.00 1976.00,2012.00 Z            M 2183.00,2299.00            C 2174.36,2298.98 2174.02,2298.64 2174.00,2290.00              2174.00,2290.00 2174.00,2112.00 2174.00,2112.00              2174.00,2112.00 2174.00,2036.00 2174.00,2036.00              2174.00,2036.00 2174.00,2019.00 2174.00,2019.00              2174.04,2017.05 2173.90,2014.37 2175.60,2013.02              2177.19,2011.77 2181.01,2012.00 2183.00,2012.00              2183.00,2012.00 2242.00,2012.00 2242.00,2012.00              2242.00,2012.00 2242.00,2087.00 2242.00,2087.00              2242.00,2087.00 2273.00,2087.00 2273.00,2087.00              2273.00,2087.00 2287.00,2087.00 2287.00,2087.00              2308.86,2087.03 2332.24,2094.32 2343.91,2114.00              2346.88,2119.02 2349.99,2128.25 2351.35,2134.00              2353.12,2141.49 2354.91,2155.36 2355.00,2163.00              2355.00,2163.00 2355.00,2267.00 2355.00,2267.00              2355.00,2267.00 2355.00,2291.00 2355.00,2291.00              2354.99,2292.82 2355.15,2295.92 2353.98,2297.40              2352.41,2299.38 2348.30,2299.00 2346.00,2299.00              2346.00,2299.00 2295.00,2299.00 2295.00,2299.00              2286.87,2298.94 2287.02,2297.73 2287.00,2290.00              2287.00,2290.00 2287.00,2189.00 2287.00,2189.00              2287.00,2178.87 2288.60,2157.90 2281.47,2150.34              2274.53,2142.98 2251.87,2144.00 2242.00,2144.00              2242.00,2144.00 2242.00,2299.00 2242.00,2299.00              2242.00,2299.00 2183.00,2299.00 2183.00,2299.00 Z            M 1863.86,2278.00            C 1862.94,2281.22 1859.28,2294.74 1857.86,2296.69              1855.82,2299.49 1852.08,2298.99 1849.00,2299.00              1825.30,2299.05 1802.87,2300.27 1780.00,2292.65              1741.30,2279.74 1713.36,2248.12 1700.67,2210.00              1697.28,2199.82 1694.13,2185.71 1694.00,2175.00              1693.72,2150.75 1696.54,2123.49 1714.09,2105.01              1738.42,2079.41 1783.46,2081.62 1816.00,2082.00              1831.22,2082.18 1852.51,2087.22 1865.00,2096.04              1895.17,2117.36 1887.16,2165.41 1867.34,2191.00              1855.18,2206.69 1840.54,2217.66 1824.00,2228.31              1824.00,2228.31 1809.00,2238.00 1809.00,2238.00              1809.00,2238.00 1838.00,2241.00 1838.00,2241.00              1838.00,2241.00 1874.00,2241.00 1874.00,2241.00              1873.27,2249.07 1866.42,2268.99 1863.86,2278.00 Z            M 1147.00,2282.00            C 1146.12,2285.04 1143.33,2296.41 1141.28,2298.01              1139.54,2299.36 1134.25,2299.02 1132.00,2299.00              1132.00,2299.00 1123.00,2298.17 1123.00,2298.17              1116.86,2297.57 1111.06,2297.17 1105.00,2295.77              1061.82,2285.74 1028.85,2252.53 1015.00,2211.00              1011.41,2200.24 1008.14,2186.35 1008.00,2175.00              1007.82,2159.07 1008.34,2146.08 1014.45,2131.00              1026.58,2101.05 1057.09,2087.05 1088.00,2087.00              1088.00,2087.00 1139.00,2087.00 1139.00,2087.00              1139.00,2087.00 1155.00,2144.00 1155.00,2144.00              1155.00,2144.00 1110.00,2144.00 1110.00,2144.00              1101.79,2144.10 1091.39,2145.69 1085.09,2151.33              1078.31,2157.40 1076.82,2166.32 1077.01,2175.00              1077.56,2199.16 1093.99,2226.38 1116.00,2236.68              1129.25,2242.88 1144.71,2241.00 1159.00,2241.00              1159.00,2241.00 1147.00,2282.00 1147.00,2282.00 Z            M 1444.00,2087.00            C 1444.00,2087.00 1448.58,2113.00 1448.58,2113.00              1448.58,2113.00 1458.58,2168.00 1458.58,2168.00              1458.58,2168.00 1470.00,2229.00 1470.00,2229.00              1470.00,2229.00 1475.42,2205.00 1475.42,2205.00              1475.42,2205.00 1483.21,2169.00 1483.21,2169.00              1483.21,2169.00 1501.00,2087.00 1501.00,2087.00              1501.00,2087.00 1565.00,2087.00 1565.00,2087.00              1565.00,2087.00 1583.58,2173.00 1583.58,2173.00              1583.58,2173.00 1596.00,2229.00 1596.00,2229.00              1596.00,2229.00 1608.42,2162.00 1608.42,2162.00              1608.42,2162.00 1616.61,2117.00 1616.61,2117.00              1616.61,2117.00 1622.00,2087.00 1622.00,2087.00              1622.00,2087.00 1694.00,2087.00 1694.00,2087.00              1694.00,2087.00 1680.88,2137.00 1680.88,2137.00              1680.88,2137.00 1650.42,2250.00 1650.42,2250.00              1650.42,2250.00 1641.29,2284.00 1641.29,2284.00              1641.29,2284.00 1637.07,2297.40 1637.07,2297.40              1637.07,2297.40 1629.00,2299.00 1629.00,2299.00              1629.00,2299.00 1573.00,2299.00 1573.00,2299.00              1573.00,2299.00 1565.56,2297.98 1565.56,2297.98              1565.56,2297.98 1562.37,2290.00 1562.37,2290.00              1562.37,2290.00 1557.37,2270.00 1557.37,2270.00              1557.37,2270.00 1542.13,2207.00 1542.13,2207.00              1542.13,2207.00 1534.00,2171.00 1534.00,2171.00              1534.00,2171.00 1532.00,2171.00 1532.00,2171.00              1532.00,2171.00 1523.87,2207.00 1523.87,2207.00              1523.87,2207.00 1508.58,2270.00 1508.58,2270.00              1508.58,2270.00 1503.63,2290.00 1503.63,2290.00              1503.63,2290.00 1500.44,2297.98 1500.44,2297.98              1500.44,2297.98 1493.00,2299.00 1493.00,2299.00              1493.00,2299.00 1437.00,2299.00 1437.00,2299.00              1437.00,2299.00 1428.93,2297.40 1428.93,2297.40              1428.93,2297.40 1424.37,2283.00 1424.37,2283.00              1424.37,2283.00 1415.71,2251.00 1415.71,2251.00              1415.71,2251.00 1386.12,2141.00 1386.12,2141.00              1386.12,2141.00 1372.00,2087.00 1372.00,2087.00              1372.00,2087.00 1444.00,2087.00 1444.00,2087.00 Z            M 1976.00,2087.00            C 1976.00,2087.00 1976.00,2299.00 1976.00,2299.00              1976.00,2299.00 1909.00,2299.00 1909.00,2299.00              1909.00,2299.00 1909.00,2087.00 1909.00,2087.00              1909.00,2087.00 1976.00,2087.00 1976.00,2087.00 Z            M 2140.66,2283.00            C 2139.73,2285.97 2137.29,2296.45 2135.28,2298.01              2133.54,2299.36 2128.25,2299.02 2126.00,2299.00              2126.00,2299.00 2117.00,2298.17 2117.00,2298.17              2110.86,2297.57 2105.06,2297.17 2099.00,2295.77              2055.80,2285.74 2022.85,2252.53 2009.00,2211.00              2005.41,2200.24 2002.14,2186.35 2002.00,2175.00              2001.82,2159.07 2002.34,2146.08 2008.45,2131.00              2020.58,2101.05 2051.09,2087.05 2082.00,2087.00              2082.00,2087.00 2133.00,2087.00 2133.00,2087.00              2133.00,2087.00 2149.00,2144.00 2149.00,2144.00              2149.00,2144.00 2104.00,2144.00 2104.00,2144.00              2095.79,2144.10 2085.39,2145.69 2079.09,2151.33              2072.01,2157.67 2070.90,2166.06 2071.00,2175.00              2071.28,2199.23 2088.03,2226.40 2110.00,2236.68              2123.25,2242.88 2138.71,2241.00 2153.00,2241.00              2153.00,2241.00 2140.66,2283.00 2140.66,2283.00 Z            M 1789.00,2182.97            C 1793.37,2179.99 1801.31,2173.67 1804.91,2169.96              1807.11,2167.70 1810.39,2163.67 1812.05,2161.00              1813.15,2159.23 1814.23,2156.98 1814.90,2155.00              1818.76,2143.44 1811.33,2140.94 1802.00,2139.72              1798.91,2139.32 1797.24,2138.91 1794.00,2139.09              1782.15,2139.76 1770.70,2143.19 1765.53,2155.00              1760.47,2166.56 1763.62,2183.33 1767.00,2195.00              1773.47,2193.15 1783.29,2186.87 1789.00,2182.97 Z" />
</svg>
